{"title":"Beyond Valkyrie Dawn of the Fourth Reich 2016 WEB-DL.x264-FGT","uid":15948175,"size":898643978,"categoryP":"video","categoryS":"movies","magnet":"?xt=urn:btih:fc05511f0a611d155745349624ca2d7397def1cd&amp;dn=Beyond+Valkyrie+Dawn+of+the+Fourth+Reich+2016+WEB-DL.x264-FGT+&amp;tr=udp%3A%2F%2Ftracker.leechers-paradise.org%3A6969&amp;tr=udp%3A%2F%2Fzer0day.ch%3A1337&amp;tr=udp%3A%2F%2Fopen.demonii.com%3A1337&amp;tr=udp%3A%2F%2Ftracker.coppersurfer.tk%3A6969&amp;tr=udp%3A%2F%2Fexodus.desync.com%3A6969","seeders":17,"leechers":11,"uploader":"CoolSceneHD","files":4,"time":1475536815,"description":"Plot:\tFrom the producers of Company of Heroes and starring Sean Patrick Flanery| Tom Sizemore| Kip Pardue with Stephen Lang and Rutger Hauer| comes an intense thriller from the front-lines of World War II. As Operation Valkyrie prepares to assassinate Adolph Hitler| an Allied special ops team prepares to extract the man destined to lead post-war Germany. But after Valkyrie fails| everything changes. Now| unlikely allies must work together to stop a group of Nazi Officers from fleeing to\r\nArgentina and establishing the Fourth Reich.\r\n\r\nVideo\r\nID                                       : 1\r\nFormat                                   : AVC\r\nFormat/Info                              : Advanced Video Codec\r\nFormat profile                           :   \r\nFormat settings, CABAC                   : Yes\r\nFormat settings, ReFrames                : 5 frames\r\nCodec ID                                 : avc1\r\nCodec ID/Info                            : Advanced Video Coding\r\nDuration                                 : 1h 40mn\r\nBit rate                                 : 1 100 Kbps\r\nWidth                                    : 720 pixels\r\nHeight                                   : 384 pixels\r\nDisplay aspect ratio                     : 1.85:1\r\nOriginal display aspect ratio            : 1.85:1\r\nFrame rate mode                          : Constant\r\nFrame rate                               : 23.976 (23976/1000) fps\r\nColor space                              : YUV\r\nChroma subsampling                       : 4:2:0\r\nBit depth                                : 8 bits\r\nScan type                                : Progressive\r\nBits/(Pixel*Frame)                       : 0.166\r\nStream size                              : 761 MiB (89%)\r\nTitle                                    : Beyond.Valkyrie.Dawn.of.the.Fourth.Reich.2016.WEB-DL.x264-FGT\r\n\r\nAudio\r\nID                                       : 2\r\nFormat                                   : AAC\r\nFormat/Info                              : Advanced Audio Codec\r\nFormat profile                           : LC\r\nCodec ID                                 : 40\r\nDuration                                 : 1h 40mn\r\nDuration_LastFrame                       : 32ms\r\nBit rate mode                            : Variable\r\nBit rate                                 : 128 Kbps\r\nMaximum bit rate                         : 31.3 Mbps\r\nChannel(s)                               : 2 channels\r\nChannel positions                        : Front: L R\r\nSampling rate                            : 48.0 KHz\r\nFrame rate                               : 46.875 fps (1024 spf)\r\nCompression mode                         : Lossy\r\nStream size                              : 92.1 MiB (11%)\r\nTitle                                    : Beyond.Valkyrie.Dawn.of.the.Fourth.Reich.2016.WEB-DL.x264-FGT\r\nLanguage                                 : English\r\nDefault                                  : Yes\r\nAlternate group                          : 1","torrent":{"xt":"urn:btih:fc05511f0a611d155745349624ca2d7397def1cd","amp;dn":"Beyond+Valkyrie+Dawn+of+the+Fourth+Reich+2016+WEB-DL.x264-FGT+","amp;tr":["udp%3A%2F%2Ftracker.leechers-paradise.org%3A6969","udp%3A%2F%2Fzer0day.ch%3A1337","udp%3A%2F%2Fopen.demonii.com%3A1337","udp%3A%2F%2Ftracker.coppersurfer.tk%3A6969","udp%3A%2F%2Fexodus.desync.com%3A6969"],"infoHash":"fc05511f0a611d155745349624ca2d7397def1cd","infoHashBuffer":{"type":"Buffer","data":[252,5,81,31,10,97,29,21,87,69,52,150,36,202,45,115,151,222,241,205]},"announce":[],"urlList":[]}}